<?xml version="1.0" standalone="no"?>
<!DOCTYPE svg PUBLIC "-//W3C//DTD SVG 20010904//EN"
 "http://www.w3.org/TR/2001/REC-SVG-20010904/DTD/svg10.dtd">
<svg version="1.0" xmlns="http://www.w3.org/2000/svg"
 width="1800.000000pt" height="2139.000000pt" viewBox="0 0 1800.000000 2139.000000"
 preserveAspectRatio="xMidYMid meet">
<g transform="translate(0.000000,2139.000000) scale(0.100000,-0.100000)"
fill="#000000" stroke="none">
<path d="M12684 16401 c-973 -6 -964 -6 -964 -47 0 -7 -7 -30 -16 -51 -9 -21
-21 -47 -25 -58 -11 -26 -85 -255 -133 -410 -21 -66 -44 -136 -52 -155 -7 -19
-21 -60 -30 -90 -9 -30 -27 -86 -39 -125 -13 -38 -37 -117 -55 -175 -18 -58
-58 -184 -90 -280 -32 -96 -70 -215 -85 -265 -51 -170 -76 -250 -89 -285 -8
-19 -21 -60 -31 -90 -9 -30 -20 -64 -25 -75 -4 -11 -25 -74 -45 -140 -20 -66
-40 -131 -45 -145 -4 -14 -38 -119 -75 -235 -37 -115 -71 -219 -76 -230 -4
-11 -22 -67 -39 -125 -43 -146 -71 -232 -80 -250 -4 -9 -11 -30 -15 -49 -4
-18 -13 -44 -21 -59 -8 -15 -14 -35 -14 -45 0 -9 -4 -25 -9 -35 -5 -9 -23 -64
-41 -122 -17 -58 -64 -206 -105 -330 -83 -257 -118 -366 -169 -535 -20 -66
-41 -128 -46 -137 -6 -10 -10 -28 -10 -40 l0 -23 243 0 c176 0 248 3 259 12 8
7 24 45 37 85 13 40 33 105 46 143 12 39 37 117 55 175 18 58 58 184 90 280
32 96 63 191 68 210 29 102 95 309 108 337 8 17 14 40 14 50 0 10 4 23 9 28 4
6 30 78 56 160 26 83 56 179 67 215 12 36 43 130 71 210 27 80 55 163 61 185
7 22 15 47 18 55 4 8 20 60 37 116 17 55 56 175 87 265 30 90 61 184 69 209
72 242 104 335 116 335 12 0 15 -237 19 -1530 3 -841 6 -1531 8 -1533 1 -1
395 -1 875 0 l872 3 6 1370 c6 1194 17 1915 34 2105 18 208 28 293 43 349 14
56 24 73 77 126 33 34 74 68 90 77 17 8 46 24 65 35 196 112 496 161 995 163
237 1 309 16 369 79 23 24 30 42 33 83 9 108 -56 174 -197 199 -79 14 -1031
18 -2376 10z"/>
<path d="M2231 16368 c-150 -30 -221 -83 -221 -164 0 -44 22 -77 67 -104 50
-29 103 -40 283 -55 85 -7 211 -18 280 -24 240 -21 500 -61 573 -87 20 -8 44
-14 53 -14 31 0 180 -80 222 -119 64 -61 120 -147 142 -220 36 -116 42 -391
46 -2116 2 -896 6 -1639 9 -1650 4 -19 11 -20 251 -18 137 1 254 5 261 7 11 4
13 212 13 1128 -1 618 -5 1222 -10 1342 -5 121 -5 226 -1 234 6 11 13 8 30
-16 11 -17 24 -44 27 -61 4 -17 11 -34 15 -37 5 -3 9 -13 9 -22 0 -9 6 -29 14
-43 7 -15 23 -54 35 -88 12 -34 25 -69 30 -79 5 -9 26 -64 46 -122 20 -58 41
-113 46 -122 5 -10 9 -23 9 -29 0 -6 6 -25 14 -42 38 -88 192 -499 202 -540 3
-15 10 -30 15 -33 5 -3 9 -12 9 -20 0 -8 8 -34 19 -57 10 -23 31 -76 46 -117
15 -41 35 -97 46 -125 10 -27 44 -120 75 -205 31 -85 62 -168 70 -185 7 -16
29 -75 49 -130 20 -55 48 -129 61 -165 13 -36 24 -69 24 -73 0 -5 8 -27 19
-50 10 -23 42 -105 70 -182 29 -77 58 -146 64 -152 16 -17 1780 -20 1785 -4 3
9 -24 89 -68 206 -4 11 -22 58 -39 105 -18 47 -39 101 -46 120 -23 57 -105
288 -105 295 0 4 -6 21 -14 38 -19 42 -72 181 -131 342 -26 72 -53 144 -60
160 -7 17 -18 48 -25 70 -7 22 -20 58 -30 80 -10 22 -64 164 -120 315 -56 151
-108 289 -115 305 -25 60 -45 113 -90 240 -41 115 -110 295 -151 395 -16 41
-67 182 -94 260 -16 49 -31 86 -59 155 -19 45 -77 199 -146 390 -26 72 -53
144 -60 160 -7 17 -23 57 -35 90 -13 33 -29 74 -36 90 -7 17 -22 58 -33 93
-26 76 -68 190 -80 217 -12 26 -69 175 -111 290 -18 50 -39 106 -47 125 l-15
35 -1501 0 c-1370 0 -1509 -1 -1586 -17z"/>
<path d="M5360 11275 c-86 -25 -240 -100 -240 -118 0 -4 7 -10 16 -14 12 -4 6
-15 -28 -48 -67 -65 -164 -177 -200 -231 -32 -48 -136 -253 -276 -544 -38 -80
-78 -156 -88 -169 -11 -13 -38 -47 -61 -77 -24 -29 -38 -56 -33 -59 12 -7 140
68 217 127 42 32 52 45 47 62 -4 16 21 65 90 178 77 127 196 354 196 373 0 3
18 34 40 70 22 36 40 68 40 71 0 20 113 189 159 238 58 61 145 130 184 146 20
8 20 9 2 8 -11 0 -40 -6 -65 -13z"/>
<path d="M5925 11274 c-38 -8 -83 -22 -99 -30 -16 -8 -37 -14 -48 -14 -10 0
-18 -4 -18 -10 0 -5 6 -10 14 -10 22 0 30 -19 11 -26 -9 -4 -32 -22 -53 -41
-231 -212 -330 -352 -491 -693 -77 -162 -224 -360 -293 -396 -25 -13 -48 -15
-119 -9 -75 6 -89 5 -89 -8 0 -21 18 -23 180 -16 80 3 140 6 134 7 -5 1 -18 8
-28 15 -16 12 -11 18 55 63 160 108 241 204 365 430 20 38 40 71 44 74 3 3 40
75 82 160 130 263 227 394 341 459 51 29 57 30 107 21 65 -12 101 -12 120 0
49 31 -106 48 -215 24z"/>
<path d="M10055 11270 c-97 -35 -120 -46 -172 -75 -43 -24 -51 -34 -51 -57 1
-21 -15 -44 -70 -100 -84 -86 -113 -121 -143 -168 -39 -62 -130 -238 -196
-380 -100 -215 -168 -342 -218 -403 -30 -37 -55 -69 -55 -72 0 -21 103 37 212
118 55 41 67 54 62 72 -6 24 -4 27 100 196 58 93 186 338 186 354 0 3 11 22
23 43 13 20 41 70 62 111 49 94 95 164 149 221 51 56 141 128 181 146 29 13
29 13 5 13 -14 0 -47 -9 -75 -19z"/>
<path d="M10690 11280 c-54 -5 -202 -44 -220 -58 -3 -2 3 -8 12 -13 15 -8 -3
-30 -116 -140 -103 -99 -151 -156 -208 -242 -41 -62 -83 -128 -93 -147 -62
-123 -145 -291 -145 -294 0 -5 -57 -93 -92 -144 -54 -78 -124 -156 -161 -179
-37 -23 -45 -25 -128 -18 -78 6 -89 5 -89 -9 0 -14 19 -16 145 -16 80 0 145 4
145 8 0 4 -5 13 -10 18 -8 8 11 26 62 60 89 59 201 168 255 249 55 82 139 232
228 408 141 278 232 400 353 469 49 28 57 30 92 19 72 -22 164 -9 134 19 -14
12 -93 17 -164 10z"/>
<path d="M11720 11223 c-11 -8 -62 -85 -114 -171 -191 -320 -294 -488 -324
-533 -18 -26 -32 -51 -32 -56 0 -5 -17 -28 -38 -51 -27 -29 -47 -42 -65 -42
-15 0 -27 -4 -27 -10 0 -5 6 -10 14 -10 7 0 19 -6 25 -13 8 -11 1 -33 -29 -92
-33 -64 -40 -89 -40 -135 0 -33 6 -64 15 -77 20 -29 94 -38 160 -19 l50 14
-37 1 c-46 1 -62 25 -52 79 8 44 73 171 135 262 24 36 85 131 134 212 117 191
223 360 300 478 77 119 105 166 105 174 0 13 -159 4 -180 -11z"/>
<path d="M12196 11227 c-9 -7 -27 -29 -39 -49 -117 -196 -232 -384 -237 -388
-3 -3 -27 -41 -53 -85 -26 -44 -52 -87 -57 -95 -5 -8 -21 -35 -36 -60 -33 -56
-117 -183 -124 -190 -4 -3 -16 -21 -27 -40 -12 -19 -40 -53 -62 -75 -48 -46
-50 -55 -16 -55 26 0 26 -1 20 -57 -9 -79 4 -109 53 -124 31 -9 52 -8 103 4
41 9 54 15 36 16 -82 3 -88 51 -21 178 25 48 56 102 68 118 13 17 55 84 95
150 40 66 106 172 147 235 41 63 78 124 83 135 5 11 42 70 83 132 101 154 147
228 154 247 5 14 -4 16 -73 16 -48 0 -86 -5 -97 -13z"/>
<path d="M5710 11200 c-20 -12 -5 -24 16 -12 9 5 12 12 7 15 -5 3 -15 2 -23
-3z"/>
<path d="M10423 11203 c-21 -8 -15 -22 7 -16 11 3 20 9 20 14 0 10 -8 10 -27
2z"/>
<path d="M5554 11101 c-37 -20 -113 -91 -98 -91 6 0 24 12 41 28 31 27 55 45
83 62 27 17 5 18 -26 1z"/>
<path d="M10259 11102 c-67 -46 -293 -272 -271 -272 5 0 47 39 94 88 88 91
166 161 199 176 19 9 26 26 12 26 -5 0 -19 -8 -34 -18z"/>
<path d="M9692 11064 c-28 -19 -81 -71 -107 -103 l-20 -25 30 23 c46 35 137
121 128 121 -5 0 -19 -7 -31 -16z"/>
<path d="M4915 11007 c-67 -66 -72 -83 -8 -31 54 44 83 72 83 79 0 16 -26 -1
-75 -48z"/>
<path d="M5374 10947 c-22 -24 -61 -67 -87 -97 -26 -29 -45 -55 -42 -58 5 -6
38 27 130 132 28 32 52 59 54 62 2 2 0 4 -6 4 -6 0 -28 -19 -49 -43z"/>
<path d="M9448 10822 c-31 -37 -66 -78 -77 -92 -12 -14 -26 -31 -32 -38 -6 -7
-9 -16 -6 -18 3 -3 22 16 43 42 22 26 63 73 91 103 29 31 53 59 53 64 0 17
-19 2 -72 -61z"/>
<path d="M4739 10822 c-24 -26 -69 -80 -99 -120 -30 -40 -66 -85 -81 -100 -14
-15 -50 -58 -80 -97 -29 -38 -61 -77 -69 -86 -8 -8 -35 -40 -60 -70 -93 -111
-262 -259 -297 -259 -7 0 -13 -4 -13 -10 0 -5 -8 -10 -17 -10 -10 0 -31 -8
-48 -17 -22 -12 -56 -17 -132 -17 -113 -1 -140 10 -175 73 l-19 33 42 45 c30
33 39 50 35 66 -3 12 -6 28 -6 35 0 7 -15 20 -34 29 -29 13 -39 14 -65 4 -53
-23 -66 -46 -66 -120 0 -56 4 -72 25 -98 64 -78 163 -108 298 -91 72 10 82 13
155 49 65 32 74 38 132 81 53 38 205 197 278 290 85 107 166 207 240 297 82
99 113 141 104 141 -2 0 -24 -22 -48 -48z"/>
<path d="M5206 10755 c-9 -13 -16 -27 -16 -31 0 -10 30 17 41 38 15 27 -6 22
-25 -7z"/>
<path d="M9917 10754 c-26 -35 -17 -38 11 -3 13 16 20 29 15 29 -4 0 -16 -12
-26 -26z"/>
<path d="M5124 10654 c-85 -97 -120 -165 -44 -85 22 23 40 45 40 49 0 4 14 22
30 41 26 29 37 51 27 51 -2 0 -26 -25 -53 -56z"/>
<path d="M9833 10652 c-54 -60 -93 -113 -93 -125 0 -6 9 -2 21 9 27 24 123
154 118 159 -3 2 -23 -17 -46 -43z"/>
<path d="M6013 10653 c9 -2 25 -2 35 0 9 3 1 5 -18 5 -19 0 -27 -2 -17 -5z"/>
<path d="M7105 10651 c-53 -6 -121 -44 -185 -101 -22 -20 -28 -30 -18 -30 9 0
19 6 22 13 10 25 36 -26 36 -74 0 -39 5 -53 30 -77 29 -30 68 -40 154 -40 42
0 46 -12 22 -62 -80 -164 -74 -246 17 -271 32 -8 54 -8 94 2 57 13 70 29 25
29 -15 0 -33 5 -40 12 -26 26 -10 99 38 173 11 17 24 41 30 54 6 13 23 42 39
65 15 22 50 77 77 121 26 44 50 82 54 85 14 13 40 61 40 76 0 14 -7 16 -37 10
-21 -3 -56 -6 -79 -6 -51 0 -61 -10 -129 -130 -60 -107 -80 -125 -125 -115
-62 14 -71 96 -21 190 29 54 34 87 14 84 -4 -1 -31 -5 -58 -8z"/>
<path d="M10773 10653 c9 -2 25 -2 35 0 9 3 1 5 -18 5 -19 0 -27 -2 -17 -5z"/>
<path d="M12533 10653 c9 -2 25 -2 35 0 9 3 1 5 -18 5 -19 0 -27 -2 -17 -5z"/>
<path d="M5910 10636 c-46 -14 -124 -60 -177 -102 -74 -60 -183 -224 -183
-276 0 -22 -69 -93 -100 -103 -11 -3 -20 -11 -20 -16 0 -14 9 -11 47 12 42 26
59 20 67 -26 16 -82 74 -135 149 -135 56 0 130 25 153 52 19 21 19 21 -1 14
-47 -18 -80 -16 -105 5 -22 19 -25 30 -28 104 -4 89 -1 100 65 230 45 88 85
138 157 195 31 25 56 48 56 52 0 11 -38 8 -80 -6z"/>
<path d="M10654 10635 c-97 -31 -208 -107 -266 -184 -49 -64 -57 -78 -82 -143
-20 -54 -62 -101 -120 -138 -22 -13 -34 -26 -28 -28 6 -2 32 11 56 29 38 27
48 30 61 19 8 -7 15 -21 15 -30 0 -35 38 -107 67 -127 50 -34 82 -43 151 -43
122 0 235 53 343 161 54 53 86 97 112 148 21 41 37 80 37 87 0 18 14 18 51 -2
42 -21 45 -13 9 26 -17 18 -33 44 -36 59 -7 31 -39 100 -56 122 -20 25 -81 59
-105 59 -27 0 -27 -2 -7 -59 17 -50 13 -94 -17 -185 -47 -139 -96 -222 -188
-319 -58 -61 -88 -77 -145 -77 -40 0 -47 3 -61 30 -22 42 -19 107 11 196 47
147 125 271 224 356 28 24 50 46 50 51 0 10 -28 7 -76 -8z"/>
<path d="M12390 10626 c-87 -31 -113 -46 -176 -100 -78 -68 -123 -127 -155
-208 -17 -40 -37 -80 -46 -90 -14 -16 -13 -20 11 -48 14 -18 26 -41 26 -52 0
-40 41 -89 94 -114 135 -63 328 -2 472 148 69 73 124 162 124 202 0 27 34 37
70 20 17 -9 34 -13 38 -9 4 4 1 10 -7 13 -30 10 -63 58 -79 116 -20 72 -74
132 -128 142 -19 3 -37 4 -39 2 -3 -2 5 -27 17 -56 l21 -51 -22 -82 c-34 -124
-123 -288 -201 -370 -44 -46 -107 -79 -149 -79 -47 0 -68 18 -77 66 -6 34 9
140 25 173 116 237 114 234 200 319 93 90 91 98 -19 58z"/>
<path d="M6110 10632 c0 -5 7 -17 15 -28 8 -10 15 -31 15 -46 0 -31 -28 -148
-40 -163 -4 -5 -11 -21 -15 -34 -12 -40 -71 -134 -115 -181 -22 -25 -50 -58
-63 -75 l-22 -30 27 18 c38 24 45 22 53 -15 4 -18 19 -45 33 -60 22 -24 33
-28 81 -28 33 1 64 7 75 15 11 8 28 15 37 15 10 0 20 4 23 8 3 5 -16 7 -43 4
-55 -5 -64 2 -63 57 1 51 60 164 187 355 58 88 105 166 105 173 0 9 -19 13
-71 13 -61 0 -75 -3 -101 -25 -16 -14 -33 -25 -37 -25 -4 0 -20 14 -36 30 -28
30 -45 38 -45 22z"/>
<path d="M6780 10631 l-75 -6 -40 -62 c-22 -35 -73 -113 -112 -175 -77 -120
-100 -147 -206 -245 -37 -35 -63 -63 -58 -63 6 0 22 11 36 24 24 22 75 41 75
27 0 -3 -11 -26 -25 -50 -14 -23 -25 -47 -25 -52 0 -5 36 -9 79 -9 l79 0 29
46 c92 148 148 228 213 302 65 74 72 85 62 106 -11 25 -5 40 41 99 26 33 31
70 10 65 -4 -1 -42 -4 -83 -7z"/>
<path d="M7871 10631 l-63 -6 -49 -85 c-26 -47 -52 -91 -55 -99 -15 -30 -117
-168 -160 -215 -44 -50 -53 -66 -34 -66 30 0 -11 -95 -93 -215 -23 -33 -55
-81 -72 -106 -57 -86 -166 -208 -225 -251 -43 -32 -146 -88 -180 -99 l-25 -7
24 -1 c41 -2 153 30 214 60 137 67 282 193 361 314 57 87 95 124 133 131 37 7
43 19 13 27 -11 3 -20 12 -20 21 0 8 26 59 58 113 32 54 85 145 117 203 32 58
80 142 107 187 46 78 53 105 25 101 -7 -1 -41 -4 -76 -7z"/>
<path d="M13170 10633 c-63 -6 -81 -13 -90 -36 -12 -27 -61 -113 -93 -164 -23
-36 -44 -52 -92 -68 -19 -7 -19 -7 3 -16 12 -4 22 -11 22 -15 0 -4 -18 -44
-40 -90 -80 -166 -33 -262 114 -237 52 9 76 33 34 33 -75 0 -63 77 41 251 9
15 31 53 50 86 18 32 60 97 92 145 33 48 59 94 59 103 0 15 -17 17 -100 8z"/>
<path d="M13597 10631 l-59 -6 -53 -95 c-50 -88 -154 -236 -226 -321 -27 -33
-29 -39 -17 -58 11 -18 10 -27 -12 -68 -74 -140 -212 -332 -306 -427 -64 -64
-197 -156 -228 -156 -6 0 -18 -5 -26 -11 -23 -16 69 -2 135 21 192 66 349 199
480 405 25 39 54 62 88 69 28 6 38 26 12 26 -27 0 -16 38 40 131 31 50 77 130
102 177 25 48 75 135 110 195 63 105 69 129 35 125 -9 -1 -43 -4 -75 -7z"/>
<path d="M9254 10586 c-11 -11 -42 -50 -69 -86 -27 -36 -52 -67 -56 -70 -3 -3
-36 -40 -73 -83 -79 -94 -172 -180 -251 -232 -32 -22 -53 -41 -46 -43 7 -2 20
3 30 12 10 9 21 16 25 16 17 0 128 94 177 151 55 63 69 78 129 145 20 21 53
62 75 89 22 28 42 52 45 55 3 3 15 20 28 38 25 36 18 41 -14 8z"/>
<path d="M4926 10416 c-61 -65 -83 -96 -68 -96 10 0 54 47 107 113 53 67 31
57 -39 -17z"/>
<path d="M9680 10460 c-8 -9 -39 -42 -69 -74 -29 -31 -51 -60 -47 -63 7 -7 95
81 120 120 20 33 18 42 -4 17z"/>
<path d="M8141 10406 c-29 -37 -51 -69 -49 -72 3 -2 20 14 39 37 19 23 42 50
52 61 10 11 17 24 15 30 -2 6 -28 -19 -57 -56z"/>
<path d="M13904 10444 c-10 -15 -28 -35 -38 -45 -11 -10 -16 -22 -13 -26 4 -3
8 -4 10 -2 2 2 18 23 36 47 19 24 31 45 29 48 -3 2 -14 -8 -24 -22z"/>
<path d="M8314 10313 c-47 -23 -69 -111 -44 -177 26 -70 115 -124 207 -126 95
-1 177 8 208 24 17 9 36 16 43 16 6 0 12 5 12 10 0 13 -6 13 -43 -4 -83 -37
-225 -36 -276 2 -14 10 -33 33 -44 52 l-18 33 34 36 c19 20 37 44 41 54 10 31
-5 67 -35 82 -34 18 -45 18 -85 -2z"/>
<path d="M7982 10229 c-51 -49 -90 -89 -87 -89 12 0 61 36 80 59 11 13 40 43
65 67 24 24 42 45 40 48 -3 2 -47 -36 -98 -85z"/>
<path d="M13704 10221 c-28 -26 -61 -55 -74 -64 -27 -19 -21 -34 7 -19 24 14
128 120 122 126 -2 3 -27 -17 -55 -43z"/>
<path d="M9437 10223 c-12 -11 -8 -23 8 -23 8 0 15 7 15 15 0 16 -12 20 -23 8z"/>
<path d="M4720 10210 c0 -5 7 -10 15 -10 8 0 15 5 15 10 0 6 -7 10 -15 10 -8
0 -15 -4 -15 -10z"/>
<path d="M11471 10159 c-13 -11 -21 -22 -18 -26 4 -3 19 6 33 20 31 31 20 36
-15 6z"/>
<path d="M6680 9880 c-87 -18 -163 -75 -176 -132 -8 -37 3 -126 19 -154 7 -11
29 -35 49 -53 44 -39 187 -79 234 -66 l29 8 -35 7 c-43 7 -91 42 -128 89 -23
30 -26 45 -27 106 0 62 4 77 28 114 18 26 44 49 68 60 37 17 38 19 17 25 -26
7 -30 6 -78 -4z"/>
<path d="M12370 9870 c-75 -27 -126 -79 -134 -136 -3 -24 -3 -65 1 -90 11 -84
96 -144 238 -169 41 -7 67 10 28 19 -15 4 -49 30 -75 57 -39 43 -48 59 -53
103 -4 30 -2 70 4 94 14 51 71 110 114 119 31 7 32 7 7 14 -42 12 -73 9 -130
-11z"/>
<path d="M6383 9213 c9 -2 25 -2 35 0 9 3 1 5 -18 5 -19 0 -27 -2 -17 -5z"/>
<path d="M8622 9204 c-115 -31 -200 -123 -237 -256 -18 -68 -19 -105 -1 -178
20 -83 48 -131 115 -192 69 -64 128 -89 210 -87 42 1 49 3 26 8 -58 12 -111
56 -140 116 -52 110 -56 310 -10 452 21 65 96 140 146 146 29 3 27 4 -11 5
-25 0 -69 -6 -98 -14z"/>
<path d="M10401 9179 c46 -57 57 -83 70 -149 38 -198 7 -432 -69 -512 -33 -36
-16 -35 56 1 192 98 257 330 149 537 -34 65 -124 132 -216 159 -23 7 -22 5 10
-36z"/>
<path d="M6894 9185 c-101 -49 -163 -136 -183 -260 -14 -84 -2 -185 31 -248
34 -67 125 -150 186 -169 56 -17 70 -7 33 26 -10 9 -26 36 -36 59 -9 23 -21
51 -26 62 -18 44 -31 181 -24 269 8 107 33 185 75 237 16 21 30 40 30 43 0 13
-38 4 -86 -19z"/>
<path d="M7104 9188 c58 -81 75 -146 83 -308 6 -129 -17 -273 -53 -326 -13
-19 -24 -39 -24 -44 0 -16 60 8 109 44 91 67 141 173 141 299 0 100 -21 164
-79 240 -46 60 -130 116 -175 117 -17 0 -17 -1 -2 -22z"/>
<path d="M7517 9202 c-32 -3 -37 -6 -30 -20 4 -9 9 -153 11 -319 2 -259 1
-307 -13 -333 l-16 -30 88 0 88 0 0 350 c0 192 -2 350 -5 351 -15 3 -90 4
-123 1z"/>
<path d="M9381 9188 c-4 -13 -11 -54 -15 -93 l-6 -70 29 60 c30 63 54 91 84
96 38 8 20 24 -31 27 -47 3 -53 1 -61 -20z"/>
<path d="M9855 9199 c-4 -6 -5 -11 -4 -12 35 -18 47 -29 64 -55 11 -17 23 -31
28 -32 8 0 10 72 1 94 -7 18 -79 23 -89 5z"/>
<path d="M10215 9196 c-79 -30 -144 -92 -184 -176 -23 -49 -26 -67 -26 -165 0
-100 3 -116 28 -170 51 -107 140 -175 247 -188 19 -2 28 -2 20 0 -23 6 -77 83
-94 133 -60 180 -37 460 45 538 16 15 29 30 29 34 0 11 -29 8 -65 -6z"/>
<path d="M10770 9199 c0 -4 7 -20 15 -35 22 -43 22 -606 0 -624 -8 -7 -15 -19
-15 -26 0 -11 21 -14 96 -14 88 0 95 1 88 18 -13 25 -16 650 -4 657 6 3 10 13
10 21 0 13 -16 15 -95 12 -52 -1 -95 -5 -95 -9z"/>
<path d="M6263 9179 c-39 -25 -83 -110 -83 -159 0 -101 64 -183 205 -261 103
-57 125 -80 125 -134 0 -38 -6 -52 -36 -85 -23 -26 -46 -40 -63 -41 -23 -2
-24 -2 -3 -6 30 -6 88 13 133 44 50 33 74 91 72 171 -2 81 -30 126 -113 179
-192 121 -206 132 -224 171 -17 37 -17 41 -1 73 10 19 24 38 31 42 17 10 18
27 2 27 -7 0 -27 -10 -45 -21z"/>
<path d="M6490 9169 c17 -16 37 -45 46 -64 22 -53 33 -42 32 29 l-1 63 -54 0
-54 0 31 -28z"/>
<path d="M8085 9191 c-3 -5 -1 -12 5 -16 13 -8 14 -604 0 -639 -13 -35 -3 -38
90 -30 72 6 79 8 70 25 -14 24 -13 636 0 644 6 3 10 10 10 16 0 12 -167 12
-175 0z"/>
<path d="M8815 9191 c-3 -5 3 -12 13 -15 22 -7 71 -81 79 -118 10 -50 23 -18
23 59 l0 75 -35 -6 c-19 -4 -44 -2 -54 4 -12 6 -22 6 -26 1z"/>
<path d="M9107 9193 c-4 -3 -2 -12 3 -18 12 -15 9 -618 -4 -651 -7 -21 -5 -21
81 -18 67 2 87 6 83 16 -11 28 -11 638 0 658 10 19 7 20 -73 20 -46 0 -87 -3
-90 -7z"/>
<path d="M9588 8880 c3 -276 1 -323 -12 -342 -9 -12 -16 -26 -16 -30 0 -4 47
-7 105 -7 l104 1 -20 27 c-19 26 -20 40 -17 349 l3 322 -75 0 -75 0 3 -320z"/>
<path d="M11040 9196 c0 -2 14 -18 30 -36 28 -30 30 -38 30 -105 0 -64 -3 -76
-30 -113 -16 -23 -41 -44 -55 -48 -14 -3 -25 -9 -25 -12 0 -3 15 -19 33 -37
32 -31 49 -85 73 -228 12 -69 93 -127 179 -127 44 0 75 22 75 53 0 24 -25 21
-43 -5 -14 -21 -17 -21 -31 -8 -18 18 -46 120 -46 167 0 32 -33 97 -61 119 -8
6 -31 17 -51 23 -60 20 -49 45 32 77 54 20 86 54 101 105 14 46 7 78 -26 117
-33 40 -83 62 -139 62 -25 0 -46 -2 -46 -4z"/>
<path d="M8935 8698 c-2 -7 -8 -29 -14 -49 -7 -20 -23 -51 -37 -70 l-25 -34
28 -6 c15 -4 36 -10 46 -14 15 -6 17 1 17 89 0 88 -5 115 -15 84z"/>
<path d="M6178 8674 c-5 -4 -8 -40 -8 -81 l0 -73 38 0 c20 0 47 -3 60 -6 14
-4 22 -2 22 6 0 6 -8 14 -18 16 -22 6 -64 66 -77 111 -5 19 -13 31 -17 27z"/>
<path d="M7950 8636 c0 -34 -41 -89 -75 -101 -62 -21 -63 -30 -5 -36 89 -9 90
-8 90 82 0 44 -2 79 -5 79 -3 0 -5 -11 -5 -24z"/>
<path d="M3684 8196 c-2 -6 -5 -814 -7 -1796 -3 -1825 -6 -1967 -43 -2149 -23
-115 -47 -151 -129 -190 -107 -50 -209 -63 -665 -81 -337 -13 -594 -47 -702
-93 -117 -49 -117 -145 -2 -203 l58 -29 420 1 c232 1 556 7 721 13 165 6 514
16 775 22 417 9 508 9 745 -6 420 -26 530 -29 640 -15 160 20 241 68 252 147
4 29 0 44 -17 66 -55 70 -175 93 -551 107 -373 14 -484 27 -645 73 -139 40
-236 109 -268 192 -10 27 -18 114 -26 265 -15 302 -29 1530 -29 2711 l-1 967
-27 5 c-57 11 -494 5 -499 -7z"/>
<path d="M6574 8199 c-3 -6 -2 -21 4 -32 16 -36 39 -96 78 -207 72 -208 97
-276 110 -307 8 -17 14 -37 14 -45 0 -8 4 -18 9 -24 4 -5 14 -25 21 -44 6 -19
32 -91 56 -160 25 -69 56 -159 70 -200 13 -41 28 -84 33 -95 30 -68 87 -223
130 -355 23 -69 45 -132 50 -140 5 -9 12 -30 15 -48 4 -17 12 -34 17 -37 5 -4
9 -13 9 -22 0 -8 6 -29 14 -46 16 -38 65 -175 95 -267 12 -36 26 -74 30 -85 5
-11 14 -33 19 -50 6 -16 23 -64 38 -105 53 -147 95 -267 134 -385 22 -66 43
-127 47 -135 15 -36 69 -191 138 -395 40 -121 105 -312 143 -425 38 -113 84
-250 102 -305 41 -127 45 -138 103 -259 56 -116 95 -168 137 -186 28 -11 34
-11 58 7 27 21 116 184 143 263 140 414 192 573 219 670 7 25 18 65 26 90 7
25 30 104 50 175 20 72 40 139 44 150 5 11 18 54 30 95 12 41 25 86 30 100 5
14 16 52 25 85 9 33 23 80 30 105 7 25 23 81 35 125 12 44 28 96 35 115 7 19
21 62 30 95 9 33 20 68 26 77 5 10 9 24 9 33 0 8 6 34 14 57 8 24 21 68 29 98
52 182 131 451 162 545 7 22 18 60 25 85 7 25 19 65 26 90 8 25 35 117 60 205
25 88 54 185 64 215 9 30 23 75 30 100 7 25 18 63 25 85 7 22 23 74 35 115 31
109 110 362 120 385 15 37 50 158 50 176 0 9 -8 20 -17 23 -9 4 -120 6 -246 5
l-229 -1 -18 -31 c-11 -17 -22 -45 -26 -62 -8 -39 -63 -214 -75 -240 -5 -11
-13 -38 -18 -60 -5 -22 -26 -96 -46 -165 -20 -69 -45 -156 -56 -195 -11 -38
-24 -81 -29 -95 -5 -14 -18 -59 -30 -100 -25 -87 -50 -140 -66 -140 -6 0 -15
15 -21 33 -6 17 -25 70 -42 117 -18 47 -43 119 -57 160 -14 41 -29 83 -35 92
-5 10 -9 23 -9 29 0 6 -6 25 -13 42 -32 74 -140 366 -188 507 -12 36 -29 75
-37 87 l-14 22 -883 1 c-636 0 -886 -3 -891 -11z"/>
<path d="M11805 8194 c-13 -14 -15 -207 -15 -1677 0 -925 -5 -1740 -10 -1837
-17 -320 -39 -443 -86 -500 -44 -51 -199 -118 -329 -140 -27 -5 -68 -14 -90
-19 -74 -18 -378 -41 -680 -51 -325 -10 -403 -21 -487 -67 -57 -31 -69 -49
-70 -102 -1 -57 15 -77 90 -113 l67 -33 1825 -1 c1267 0 1883 -4 2015 -12 246
-15 1088 -16 1152 -1 120 27 183 84 183 165 0 36 -6 50 -37 82 -64 67 -99 73
-483 83 -336 9 -685 32 -750 50 -19 5 -60 13 -90 19 -76 12 -157 33 -166 43
-4 4 -13 7 -21 7 -7 0 -36 10 -63 22 -105 46 -160 184 -192 483 -8 77 -13 635
-17 1860 l-6 1750 -862 2 c-759 2 -865 0 -878 -13z"/>
</g>
</svg>
